<?xml version="1.0" encoding="utf-8"?>
<!-- Generator: Adobe Illustrator 16.2.1, SVG Export Plug-In . SVG Version: 6.00 Build 0)  -->
<!DOCTYPE svg PUBLIC "-//W3C//DTD SVG 1.1//EN" "http://www.w3.org/Graphics/SVG/1.1/DTD/svg11.dtd">
<svg version="1.1" id="Layer_1" xmlns="http://www.w3.org/2000/svg" xmlns:xlink="http://www.w3.org/1999/xlink" x="0px" y="0px"
	 width="300px" height="404.5px" viewBox="0 0 300 404.5" enable-background="new 0 0 300 404.5" xml:space="preserve">
<g>
	<path fill-rule="evenodd" clip-rule="evenodd" fill="#ABABAB" d="M29,130c-2.384,0-4.587-0.771-6.392-2.065L21,140l7.5-4l7.5,4
		l-1.529-11.471C32.857,129.459,30.992,130,29,130z"/>
	<path fill-rule="evenodd" clip-rule="evenodd" fill="#ABABAB" d="M29,128c4.962,0,9-4.038,9-9s-4.038-9-9-9s-9,4.038-9,9
		S24.038,128,29,128z M23.63,116.98l2.51,0.03c0.73,0.01,1.5-0.53,1.72-1.2l0.75-2.31c0.21-0.67,0.57-0.67,0.78,0l0.75,2.31
		c0.22,0.67,0.99,1.21,1.72,1.2l2.51-0.03c0.73,0,0.84,0.32,0.25,0.72l-2.06,1.4c-0.59,0.41-0.88,1.28-0.65,1.94l0.8,2.3
		c0.24,0.66-0.05,0.86-0.63,0.44l-2.02-1.45c-0.59-0.41-1.53-0.41-2.12,0l-2.02,1.45c-0.58,0.42-0.87,0.22-0.63-0.44l0.8-2.3
		c0.23-0.66-0.06-1.53-0.65-1.94l-2.06-1.4C22.79,117.3,22.9,116.98,23.63,116.98z"/>
</g>
<g>
	<path fill="#ABABAB" d="M99.451,116.577c0-0.51-0.21-0.96-0.55-1.27v-3.09c0-0.23-0.24-0.38-0.43-0.26l-4.58,2.62h-1.94
		c-1.08,0-1.95,0.89-1.95,2s0.87,2.01,1.95,2.01h-0.38l-0.82,2.97c-0.15,0.52,0.23,1.04,0.76,1.04h0.67c0.36,0,0.67-0.24,0.76-0.59
		l0.95-3.42l4.58,2.62c0.19,0.11,0.43-0.03,0.43-0.26v-3.09C99.241,117.537,99.451,117.086,99.451,116.577z"/>
	<path fill="#ABABAB" d="M100.5,112.387c-0.15,0-0.29-0.09-0.35-0.24c-0.09-0.19-0.01-0.43,0.19-0.52l3.34-1.59
		c0.19-0.09,0.42-0.01,0.51,0.19s0.01,0.44-0.18,0.53l-3.35,1.59C100.61,112.367,100.55,112.387,100.5,112.387z"/>
	<path fill="#ABABAB" d="M103.84,122.997c-0.05,0-0.11-0.01-0.16-0.04l-3.34-1.59c-0.2-0.09-0.28-0.33-0.19-0.53
		c0.09-0.2,0.32-0.28,0.51-0.19l3.35,1.59c0.19,0.09,0.27,0.33,0.18,0.53C104.13,122.907,103.991,122.997,103.84,122.997z"/>
	<path fill="#ABABAB" d="M104.61,116.977h-4.11c-0.21,0-0.39-0.18-0.39-0.4c0-0.22,0.18-0.4,0.39-0.4h4.11
		c0.22,0,0.39,0.18,0.39,0.4C105,116.796,104.831,116.977,104.61,116.977z"/>
</g>
<g>
	<rect x="60" y="110" fill-rule="evenodd" clip-rule="evenodd" fill="#ABABAB" width="10" height="8"/>
	<polygon fill-rule="evenodd" clip-rule="evenodd" fill="#ABABAB" points="65,118 68,118 65,121 	"/>
</g>
<g>
	<path fill="#B0B1B1" d="M214.38,122.359c-0.22-0.649-0.319-1.389-0.319-2.229c0-1.479,0.459-2.04,1.06-2.83
		c-0.46-1.69,0.17-2.85,0.17-2.85s0.97-0.21,2.819,1.14c1-0.43,3.66-0.47,4.92-0.09c0.781-0.53,2.191-1.27,2.761-1.06
		c0.149,0.26,0.489,0.99,0.2,2.621c0.199,0.359,1.21,1.129,1.21,3.279c-0.021,0.79-0.101,1.46-0.25,2.03
		c1.75-0.021,2.979,0.09,3.89,0.22c0.1-0.6,0.16-1.22,0.16-1.85c0-5.93-4.7-10.74-10.5-10.74s-10.5,4.81-10.5,10.74
		c0,0.65,0.061,1.289,0.17,1.91C211.34,122.471,213.53,122.359,214.38,122.359z"/>
	<path fill="#B0B1B1" d="M226.71,123.07c-0.67,1.5-2.04,2.06-4.26,2.289c0.72,0.471,0.93,1.051,0.93,2.621
		c0,1.569-0.021,1.779-0.021,2.14c0.011,0.351,0.311,0.59,0.551,0.771c3.29-1.15,5.84-3.931,6.74-7.391
		C229.03,123.15,227.34,123.09,226.71,123.07z"/>
	<path fill="#B0B1B1" d="M218.11,130.09l-0.01-1.939c0,0-0.42,0.08-1.01,0.08c-1.5,0-1.97-0.98-2.199-1.53
		c-0.291-0.71-0.67-1.05-1.08-1.32c-0.24-0.159-0.301-0.351-0.011-0.409c1.32-0.25,1.66,1.539,2.55,1.829
		c0.631,0.2,1.44,0.11,1.851-0.159c0.05-0.541,0.43-1.021,0.76-1.271c-2.26-0.22-3.59-1.021-4.28-2.3
		c-2.07,0.05-3.35,0.32-4.289,0.55c0.949,3.521,3.609,6.31,7.01,7.38C217.63,130.79,218.11,130.58,218.11,130.09z"/>
</g>
<g>
	<rect x="170" y="110" fill-rule="evenodd" clip-rule="evenodd" fill="#A8A7A8" width="7" height="2"/>
	<rect x="170" y="112" fill-rule="evenodd" clip-rule="evenodd" fill="#A8A7A8" width="17" height="11"/>
</g>
<g>
	<g>
		<path fill-rule="evenodd" clip-rule="evenodd" fill="#B0B1B1" d="M262.231,119.33c0.529-1.061,2.049-2.08,3.619-2.01
			c1.021,0,2.371,0.64,2.871,1.869C266.68,122.99,262.44,119.98,262.231,119.33z M261.71,117.83l-0.11,0.15
			c-0.01,0.01-0.02-2.951,0.721-4.51c-0.15,0.77-0.15,1.439-0.08,1.969c0.029,0.601,0.5,1.121,0.99,1.08l0.109-0.02
			C262.77,116.82,262.18,117.26,261.71,117.83z M262.05,123.33c0.11,0.689-0.7,1.63-2.05,1.699c-1.35-0.069-2.16-1.01-2.05-1.699
			c0,0,0.47-0.26,2.05-0.26S262.05,123.33,262.05,123.33z M262.76,125.971c1.051,0,1.45,0.799,1.471,1.6
			c0.02,0.699-0.791,1.38-1.141,1.55c-1.01,0.58-2.1,0.771-3.09,0.76c-0.99,0.011-2.08-0.18-3.09-0.76
			c-0.35-0.17-1.16-0.851-1.141-1.55c0.021-0.801,0.42-1.6,1.471-1.6H260l0,0H262.76z M258.401,117.98l-0.11-0.15
			c-0.47-0.57-1.06-1.01-1.63-1.33l0.109,0.02c0.49,0.041,0.961-0.479,0.99-1.08c0.07-0.529,0.07-1.199-0.08-1.969
			C258.42,115.029,258.411,117.99,258.401,117.98z M251.28,119.189c0.5-1.229,1.851-1.869,2.871-1.869
			c1.57-0.07,3.09,0.949,3.619,2.01C257.561,119.98,253.321,122.99,251.28,119.189z M270,119.189c-0.27-0.75-0.75-1.34-1.04-1.64
			c-0.979,0.2-1.56-0.88-0.851-1.37c0.221-0.14,0.511-0.07,0.631,0.12c0.23,0.39-0.36,0.431-0.25,0.13c0-0.01,0.02-0.039-0.02-0.06
			c-0.24-0.11-0.48,0.19-0.41,0.46c0.049,0.279,0.35,0.51,0.799,0.49c0.791-0.12,1.021-1.03,0.511-1.73
			c-0.32-0.5-1.22-0.71-1.75-0.21c0.89-0.97,0.021-2.72-1.42-2.649c-1.11,0.029-1.69,1.17-1.13,1.869
			c0.64,0.78,1.729,0.23,1.539-0.42c-0.01-0.05-0.049-0.09-0.1-0.05c-0.39,0.25-0.6-0.37-0.17-0.409
			c0.61-0.111,1.11,1.819-0.93,2.079c-0.37,0.021-0.98,0.171-1.631,0.47c0.451-0.41,0.23-1.14-0.309-1.119
			c-0.381,0.01-0.5,0.32-0.431,0.5c0.06,0.149,0.2,0.16,0.22,0.109c-0.02-0.06,0.061-0.13,0.131-0.06
			c0.069,0.06-0.031,0.25-0.24,0.2c-0.11-0.03-0.23-0.131-0.271-0.33c-0.2-0.76-0.159-2.711,0.851-3.83
			c0.399-0.48,0.879-0.16,0.85,0.14c-0.03,0.17-0.25,0.101-0.189-0.01c0.01-0.021,0.039-0.07-0.041-0.101
			c-0.25-0.08-0.49,0.211-0.34,0.51c0.11,0.191,0.33,0.361,0.721,0.261c0.58-0.101,0.799-1.08-0.051-1.63
			c-0.729-0.43-1.699-0.91-3.05-0.91c-0.42,0-0.76,0.34-0.76,0.75s0.319,0.74,0.729,0.76c0,1.381-0.18,3.471-1.6,5.85
			c-1.42-2.379-1.6-4.469-1.6-5.85c0.41-0.02,0.729-0.35,0.729-0.76s-0.34-0.75-0.76-0.75c-1.36,0-2.32,0.48-3.05,0.91
			c-0.85,0.55-0.631,1.529-0.051,1.63c0.391,0.101,0.61-0.069,0.721-0.261c0.15-0.299-0.09-0.59-0.34-0.51
			c-0.08,0.03-0.051,0.08-0.041,0.101c0.061,0.11-0.159,0.18-0.189,0.01c-0.029-0.3,0.45-0.62,0.85-0.14
			c1.01,1.119,1.051,3.07,0.851,3.83c-0.04,0.199-0.16,0.3-0.271,0.33c-0.209,0.05-0.31-0.141-0.24-0.2c0.07-0.07,0.15,0,0.131,0.06
			c0.02,0.051,0.16,0.04,0.22-0.109c0.069-0.18-0.05-0.49-0.431-0.5c-0.539-0.021-0.76,0.709-0.309,1.119
			c-0.65-0.299-1.261-0.449-1.631-0.47c-2.04-0.26-1.54-2.19-0.93-2.079c0.43,0.039,0.22,0.659-0.17,0.409
			c-0.051-0.04-0.09,0-0.1,0.05c-0.19,0.65,0.899,1.2,1.539,0.42c0.561-0.699-0.02-1.84-1.13-1.869c-1.44-0.07-2.31,1.68-1.42,2.649
			c-0.53-0.5-1.43-0.29-1.75,0.21c-0.51,0.7-0.28,1.61,0.511,1.73c0.449,0.02,0.75-0.211,0.799-0.49c0.07-0.27-0.17-0.57-0.41-0.46
			c-0.039,0.021-0.02,0.05-0.02,0.06c0.11,0.301-0.48,0.26-0.25-0.13c0.12-0.19,0.41-0.26,0.631-0.12
			c0.709,0.49,0.129,1.57-0.851,1.37c-0.29,0.3-0.771,0.89-1.04,1.64c0,0,0.75,1.711,2.27,2.49c-0.299,0.33-0.649,1.24,0.08,1.891
			c0.541,0.47,1.32,0.41,1.65-0.11c0.33-0.54,0.02-0.989-0.37-1.04c-0.13-0.02-0.3,0.02-0.409,0.12c-0.281,0.26,0.039,0.56,0.1,0.45
			c0.039-0.12,0.199-0.11,0.24,0.01c0.039,0.08-0.07,0.2-0.181,0.2c-0.68,0.06-0.67-1.171,0.42-1.091
			c0.58,0.041,1.46,0.07,2.53-0.35c1.061-0.46,2.08-1.34,2.08-1.34c-0.221,1.24-0.9,2.29-1.15,2.7c0.08,1.21,1,1.67,1,1.67h-2.97
			l-0.03,0.01c-0.14-0.14-0.34-0.229-0.55-0.229c-0.431,0-0.78,0.34-0.78,0.77s0.35,0.78,0.78,0.78c0.021,0,0.04,0.01,0.04,0.05
			c-0.46,2.28,1.029,3.71,1.029,3.71s3.561,0.64,4.221,2.12c0.66-1.48,4.221-2.12,4.221-2.12s1.489-1.43,1.029-3.71
			c-0.01-0.04,0.02-0.05,0.04-0.05c0.431,0,0.78-0.351,0.78-0.78s-0.35-0.77-0.78-0.77c-0.21,0-0.41,0.09-0.55,0.229l-0.03-0.01
			h-2.97c0,0,0.92-0.46,1-1.67c-0.25-0.41-0.93-1.46-1.15-2.7c0,0,1.02,0.88,2.08,1.34c1.07,0.42,1.95,0.391,2.53,0.35
			c1.09-0.08,1.1,1.15,0.42,1.091c-0.11,0-0.22-0.12-0.181-0.2c0.041-0.12,0.201-0.13,0.24-0.01c0.061,0.109,0.381-0.19,0.1-0.45
			c-0.109-0.101-0.279-0.14-0.409-0.12c-0.39,0.051-0.7,0.5-0.37,1.04c0.33,0.521,1.109,0.58,1.65,0.11
			c0.729-0.65,0.379-1.561,0.08-1.891C269.25,120.9,270,119.189,270,119.189z"/>
	</g>
</g>
<path fill="#E5E5E5" d="M52,196.55c0.66,0,1.301-0.33,1.681-0.92l7.271-11.27c0.43-0.66,0.43-1.51,0-2.17l-7.271-11.27
	c-0.601-0.931-1.83-1.201-2.76-0.601c-0.931,0.601-1.2,1.841-0.601,2.761l6.57,10.189l-6.57,10.189
	c-0.6,0.931-0.33,2.17,0.601,2.771C51.25,196.44,51.63,196.55,52,196.55z"/>
<path fill="#333333" d="M112,196.549c0.66,0,1.301-0.33,1.681-0.92l7.271-11.27c0.43-0.66,0.43-1.51,0-2.17l-7.271-11.27
	c-0.601-0.931-1.83-1.201-2.76-0.601c-0.931,0.601-1.2,1.841-0.601,2.761l6.57,10.189l-6.57,10.189
	c-0.6,0.931-0.33,2.17,0.601,2.771C111.25,196.44,111.63,196.549,112,196.549z"/>
<path fill="#E5E5E5" d="M29.048,170c-0.64,0-1.271,0.33-1.64,0.93l-7.1,11.47c-0.41,0.67-0.41,1.53,0,2.2l7.1,11.47
	c0.58,0.94,1.79,1.21,2.699,0.6c0.9-0.6,1.16-1.86,0.58-2.81l-6.42-10.36l6.42-10.36c0.58-0.95,0.32-2.21-0.58-2.81
	C29.777,170.11,29.408,170,29.048,170z"/>
<path fill="#333333" d="M89.047,170c-0.64,0-1.271,0.33-1.64,0.93l-7.1,11.47c-0.41,0.67-0.41,1.53,0,2.2l7.1,11.47
	c0.58,0.94,1.79,1.21,2.699,0.6c0.9-0.6,1.16-1.86,0.58-2.81l-6.42-10.36l6.42-10.36c0.58-0.95,0.32-2.21-0.58-2.81
	C89.777,170.11,89.408,170,89.047,170z"/>
<g>
	<g>
		<rect x="64.59" y="72.732" fill="#3C7368" width="1.61" height="7.14"/>
		<polygon fill="#3C7368" points="81.8,79.872 81.8,74.142 79.63,74.142 79.63,72.732 85.58,72.732 85.58,74.142 83.41,74.142 
			83.41,79.872 		"/>
		<polygon fill="#3C7368" points="90.18,79.872 90.18,72.732 94.91,72.732 94.91,74.142 91.78,74.142 91.78,75.512 94.47,75.512 
			94.47,76.922 91.78,76.922 91.78,78.452 95.1,78.452 95.1,79.872 		"/>
		<polygon fill="#3C7368" points="131.16,79.872 131.16,74.142 128.99,74.142 128.99,72.732 134.94,72.732 134.94,74.142 
			132.77,74.142 132.77,79.872 		"/>
		<rect x="139.07" y="72.732" fill="#3C7368" width="1.61" height="7.14"/>
		<polygon fill="#3C7368" points="155.14,79.872 155.14,72.732 159.88,72.732 159.88,74.142 156.75,74.142 156.75,75.512 
			159.44,75.512 159.44,76.922 156.75,76.922 156.75,78.452 160.06,78.452 160.06,79.872 		"/>
		<path fill="#3C7368" d="M122.06,80.002c-2.03,0-3.68-1.66-3.68-3.69c0-2.04,1.65-3.69,3.68-3.69c1.56,0,2.96,1,3.47,2.48
			l0.08,0.25H124l-0.05-0.09c-0.38-0.7-1.11-1.12-1.89-1.12c-1.19,0-2.17,0.97-2.17,2.17c0,1.2,0.98,2.17,2.17,2.17
			c0.78,0,1.5-0.43,1.89-1.12l0.05-0.1h1.61l-0.08,0.25C125.02,79.002,123.62,80.002,122.06,80.002z"/>
		<polygon fill="#3C7368" points="74.84,72.732 74.84,77.122 71.8,72.732 70.19,72.732 70.19,79.872 71.8,79.872 71.8,75.472 
			74.82,79.872 74.84,79.862 74.84,79.872 76.46,79.872 76.46,72.732 		"/>
		<path fill-rule="evenodd" clip-rule="evenodd" fill="#3C7368" d="M101.08,74.352h1.09c0.55,0,0.99,0.45,0.99,1
			c0,0.55-0.44,1-0.99,1h-1.09V74.352z M102.85,79.872h1.95l-1.51-2.16c0.87-0.43,1.48-1.32,1.48-2.36c0-1.44-1.15-2.61-2.59-2.62
			h-2.71v7.14h1.61v-1.9h0.44L102.85,79.872z"/>
		<path fill-rule="evenodd" clip-rule="evenodd" fill="#3C7368" d="M111.13,76.692l0.57-1.42l0.56,1.42H111.13z M113.51,79.872h1.76
			l-2.83-7.14h-1.49l-2.82,7.14h1.75l0.65-1.64h2.34L113.51,79.872z"/>
		<polygon fill="#3C7368" points="149.72,72.732 147.9,77.322 146.09,72.732 144.33,72.732 147.15,79.872 148.65,79.872 
			151.47,72.732 		"/>
	</g>
	<path fill="#3C7368" d="M48.66,56.752c0.91,0.92,2,1.38,3.3,1.38c1.31,0,2.43-0.46,3.31-1.38c0.39-0.39,0.69-0.82,0.94-1.27h8.63
		c-0.42,2.74-1.63,5.14-3.729,7.18c-2.51,2.55-5.561,3.79-9.12,3.8H51.89l-0.33-0.01c-2.33-0.08-4.5-0.75-6.37-1.88
		c-0.83-0.53-1.63-1.16-2.38-1.91c-2.54-2.53-3.78-5.6-3.78-9.19c0-3.59,1.24-6.66,3.78-9.19c2.54-2.55,5.57-3.82,9.14-3.83h0.07
		h0.01c0.46,0.02,0.89,0.04,1.32,0.07c2.99,0.29,5.58,1.54,7.76,3.76c2.1,2.04,3.34,4.41,3.729,7.18h-8.6
		c-0.28-0.49-0.58-0.94-0.97-1.34c-0.88-0.91-2-1.37-3.31-1.37c-1.3,0-2.39,0.46-3.3,1.37c-0.88,0.95-1.33,2.04-1.33,3.35
		C47.33,54.752,47.78,55.872,48.66,56.752z"/>
	<g>
		<path fill="#3C7368" d="M23.49,50.272c0.89,0.59,2.09,0.33,2.68-0.56c0.58-0.9,0.34-2.1-0.56-2.69
			c-0.891-0.59-2.09-0.34-2.67,0.55C22.35,48.472,22.6,49.682,23.49,50.272z"/>
		<path fill="#3C7368" d="M29.73,39.432c-0.41-0.27-0.96-0.16-1.23,0.26c-0.27,0.41-0.16,0.96,0.25,1.23s0.96,0.15,1.23-0.26
			C30.25,40.252,30.14,39.702,29.73,39.432z"/>
		<path fill="#3C7368" d="M25.11,41.632c0.56,0.36,1.31,0.21,1.68-0.35c0.37-0.57,0.21-1.32-0.34-1.69
			c-0.561-0.37-1.32-0.22-1.69,0.35C24.4,40.502,24.55,41.262,25.11,41.632z"/>
		<path fill="#3C7368" d="M26.28,36.882c1.12,0.74,2.609,0.42,3.35-0.69c0.73-1.12,0.42-2.62-0.7-3.36
			c-1.109-0.73-2.609-0.42-3.34,0.7C24.86,34.642,25.17,36.152,26.28,36.882z"/>
		<path fill="#3C7368" d="M31.78,34.022c0.71,0.46,1.66,0.27,2.13-0.45c0.46-0.71,0.27-1.67-0.44-2.14
			c-0.71-0.47-1.67-0.27-2.14,0.44C30.87,32.592,31.07,33.552,31.78,34.022z"/>
		<path fill="#3C7368" d="M34.38,28.282c0.53,0.35,1.23,0.2,1.58-0.33c0.35-0.52,0.2-1.24-0.33-1.58c-0.53-0.35-1.23-0.2-1.58,0.33
			C33.7,27.232,33.85,27.942,34.38,28.282z"/>
		<path fill="#3C7368" d="M38.88,30.722c0.83,0.54,1.94,0.31,2.48-0.52c0.54-0.83,0.319-1.94-0.51-2.48
			c-0.83-0.55-1.93-0.32-2.48,0.51C37.83,29.062,38.06,30.172,38.88,30.722z"/>
		<path fill="#3C7368" d="M39.7,22.872c0.71,0.47,1.66,0.27,2.13-0.44c0.47-0.72,0.27-1.68-0.44-2.14
			c-0.71-0.47-1.67-0.28-2.13,0.44C38.79,21.442,38.99,22.402,39.7,22.872z"/>
		<path fill="#3C7368" d="M46.21,25.242c1.05,0.69,2.45,0.4,3.13-0.65c0.55-0.84,0.47-1.93-0.14-2.67c0.27-0.03,0.51-0.16,0.67-0.4
			c0.27-0.41,0.15-0.96-0.26-1.23c-0.4-0.27-0.96-0.16-1.221,0.25c-0.14,0.22-0.18,0.46-0.13,0.69c-0.97-0.37-2.1-0.04-2.689,0.87
			C44.88,23.152,45.17,24.552,46.21,25.242z"/>
		<path fill="#3C7368" d="M52.06,28.962c0.83,0.55,1.94,0.32,2.48-0.51c0.54-0.83,0.31-1.95-0.51-2.49
			c-0.83-0.55-1.94-0.31-2.48,0.52C51.01,27.302,51.24,28.422,52.06,28.962z"/>
		<path fill="#3C7368" d="M55.34,23.302c0.82,0.54,1.93,0.31,2.48-0.52c0.54-0.83,0.31-1.94-0.521-2.49
			c-0.82-0.54-1.93-0.31-2.47,0.52C54.28,21.642,54.51,22.752,55.34,23.302z"/>
		<path fill="#3C7368" d="M59.26,26.002c0.521,0.35,1.23,0.2,1.58-0.33c0.35-0.53,0.2-1.24-0.33-1.59
			c-0.52-0.34-1.229-0.2-1.58,0.33C58.58,24.942,58.73,25.652,59.26,26.002z"/>
		<path fill="#3C7368" d="M66.96,33.932c-0.71-0.46-1.67-0.26-2.13,0.45c-0.47,0.71-0.27,1.67,0.44,2.14s1.66,0.27,2.13-0.44
			C67.87,35.362,67.67,34.402,66.96,33.932z"/>
		<path fill="#3C7368" d="M27.01,64.542c-0.71-0.47-1.66-0.27-2.13,0.44c-0.47,0.72-0.27,1.68,0.44,2.14
			c0.71,0.47,1.66,0.27,2.13-0.44C27.92,65.972,27.72,65.012,27.01,64.542z"/>
		<path fill="#3C7368" d="M21.77,60.792c-0.53-0.35-1.24-0.2-1.58,0.33c-0.35,0.53-0.2,1.24,0.32,1.58
			c0.53,0.35,1.24,0.21,1.59-0.32C22.44,61.852,22.3,61.142,21.77,60.792z"/>
		<path fill="#3C7368" d="M63.98,36.552c-0.22-0.15-0.46-0.24-0.71-0.29h0.01c0,0-0.51-0.04-0.48-0.55c0.07-0.06,0.14-0.12,0.19-0.2
			c0.27-0.41,0.16-0.97-0.25-1.24c-0.41-0.27-0.97-0.15-1.24,0.26c-0.26,0.41-0.15,0.96,0.26,1.23c0.09,0.06,0.17,0.09,0.271,0.12
			c0.01,0.02,0.02,0.04,0.04,0.06c0.17,0.17,0.1,0.35,0.04,0.44c-0.25,0.1-0.48,0.25-0.67,0.45c-0.11-0.2-0.27-0.36-0.47-0.5
			c-0.39-0.26-0.85-0.31-1.28-0.19c0.23-0.9-0.12-1.89-0.95-2.43c-0.271-0.18-0.561-0.29-0.86-0.34c0.12-0.1,0.23-0.22,0.32-0.35
			c0.15-0.23,0.22-0.49,0.24-0.75l0.01,0.01c0,0,0.28-1.13,1.2-0.69c0.83,0.54,1.94,0.32,2.48-0.52c0.54-0.82,0.31-1.94-0.51-2.49
			c-0.83-0.54-1.94-0.31-2.48,0.52c-0.2,0.31-0.29,0.65-0.29,0.99l-0.01,0.02c0,0.14-0.03,0.98-0.9,0.91
			c-0.07-0.05-0.12-0.1-0.18-0.14c-0.68-0.45-1.57-0.29-2.06,0.33c-0.13-0.31-0.36-0.59-0.66-0.79c-0.82-0.54-1.93-0.31-2.48,0.52
			c-0.08,0.14-0.15,0.28-0.2,0.44l-0.08-0.06c-0.45-0.3-0.98-0.36-1.46-0.23c0.09-0.1,0.18-0.21,0.26-0.33
			c0.68-1.04,0.39-2.45-0.65-3.13c-1.04-0.69-2.439-0.4-3.13,0.65c-0.36,0.55-0.45,1.2-0.3,1.79c-0.89-0.42-1.97-0.13-2.52,0.72
			c-0.35,0.53-0.41,1.16-0.23,1.72l0.05,0.14l0.07,0.15c0.37,0.7,0.96,0.54,1.37,0.79l0.01,0.01c0.38,0.2,0.65,0.61,0.65,1.08
			c0,0.68-0.55,1.23-1.23,1.23c-0.67,0-1.22-0.55-1.22-1.23c0-0.07,0.01-0.12,0.02-0.19v-0.01c0.07-0.74-0.189-1.05-0.3-1.15
			l-0.05-0.04c-0.25-0.17-0.53-0.25-0.81-0.25l-0.02-0.01h-0.01c-0.061,0-0.13,0.01-0.21,0.02c-0.13,0.02-0.26,0.05-0.38,0.11
			c-0.18,0.04-0.38,0.08-0.59,0.07c-0.3-0.01-0.58-0.3-0.98-0.45c-0.79-0.34-1.72-0.08-2.2,0.66c-0.24,0.37-0.32,0.79-0.28,1.18
			v0.02l0.01,0.06c0.05,0.28,0.15,0.54,0.32,0.77c0.03,0.1-0.03,0.14-0.14,0.13l-0.04,0.01c-0.06,0.01-0.12,0.02-0.18,0.04
			l-0.181,0.04c-0.12,0.03-0.189,0.08-0.25,0.12l-0.09,0.06c-0.08,0.03-0.2,0.02-0.26-0.25l-0.06-0.17l-0.03-0.09l-0.061-0.13
			c-0.14-0.27-0.34-0.5-0.609-0.68c-0.83-0.54-1.94-0.31-2.48,0.52c-0.54,0.83-0.31,1.94,0.51,2.49c0.39,0.25,0.83,0.33,1.25,0.27
			l0.05,0.03c0.23-0.12,0.49-0.2,0.76-0.2c0.9,0,1.62,0.73,1.62,1.63s-0.72,1.63-1.62,1.63c-0.89,0-1.62-0.73-1.62-1.63v-0.03
			c-0.11-0.46-0.39-0.89-0.81-1.17c-0.9-0.59-2.1-0.34-2.68,0.56c-0.59,0.89-0.34,2.1,0.55,2.69c0.27,0.17,0.56,0.27,0.86,0.31
			c-0.62,0-1.23,0.3-1.6,0.86c-0.061-0.06-0.13-0.11-0.19-0.15c-1.12-0.74-2.62-0.42-3.35,0.69c-0.73,1.12-0.42,2.62,0.7,3.36
			c0.36,0.24,0.78,0.37,1.19,0.39c-0.07,0.08-0.13,0.16-0.19,0.25c-0.59,0.9-0.34,2.1,0.55,2.69c0.25,0.16,0.51,0.25,0.79,0.29
			c0.62,0.43,0.7,1.22,0.359,1.78c-0.09,0.11-0.729,0.9-1.689,0.24c-0.15-0.18-0.33-0.35-0.54-0.48c-1.11-0.74-2.61-0.43-3.34,0.69
			c-0.55,0.85-0.51,1.92,0.04,2.71c-0.38-0.1-0.77-0.06-1.11,0.11c0.06-0.64-0.23-1.28-0.8-1.66c-0.82-0.54-1.93-0.31-2.47,0.52
			c-0.55,0.83-0.32,1.94,0.51,2.49c0.6,0.39,1.35,0.38,1.92,0.02c0,0.51,0.24,1,0.689,1.3c0.71,0.47,1.67,0.27,2.13-0.44
			c0.05-0.07,0.08-0.14,0.12-0.21c0.07-0.16,0.11-0.32,0.13-0.49c0.22-0.54,0.63-0.6,0.8-0.6h0.069H27.7l0,0
			c0.22,0,0.439-0.04,0.65-0.1h0.01c0.18-0.06,0.35-0.13,0.51-0.22c0.49-0.08,0.64,0.37,0.51,0.75c-0.05,0.08-0.09,0.17-0.13,0.25
			l-0.01,0.02c-0.061,0.07-0.08,0.13-0.07,0.2c-0.23,0.74,0.04,1.58,0.72,2.03c0.34,0.22,0.721,0.31,1.09,0.28
			c0.13-0.04,0.27-0.07,0.41-0.07c0.09-0.03,0.181-0.06,0.271-0.1l-0.04,0.12c0.58,0.11,1.02,0.62,1.02,1.23
			c0,0.69-0.56,1.26-1.25,1.26c-0.55,0-1.01-0.36-1.18-0.86c-0.04-0.07-0.07-0.16-0.11-0.27c-0.01-0.17-0.04-0.34-0.11-0.5v-0.03
			c-0.13-0.34-0.36-0.64-0.68-0.85c-0.83-0.54-1.94-0.31-2.48,0.52s-0.32,1.94,0.51,2.48c0.7,0.47,1.61,0.37,2.2-0.19l0.03-0.02
			l0.03-0.03l0.01-0.01c0.42-0.45,0.55-0.15,0.59,0.12c-0.25,0.92,0.1,1.94,0.939,2.5l0.101,0.06c-0.2,0.13-0.38,0.31-0.521,0.52
			c-0.54,0.83-0.31,1.95,0.51,2.49s1.92,0.32,2.47-0.49c-0.01,0.64,0.31,1.28,0.88,1.66c0.91,0.6,2.13,0.34,2.73-0.57
			c0.22-0.46,0.15-0.81,0.15-0.81h0.01l-0.01-0.12c0-0.42,0.33-0.76,0.75-0.76s0.76,0.34,0.76,0.76c0,0.25-0.13,0.47-0.31,0.61
			c-0.08,0.06-0.18,0.11-0.29,0.13c-0.06,0.04-0.13,0.08-0.2,0.13l-0.07,0.08c-0.04,0.04-0.08,0.07-0.11,0.11
			c-0.07,0.07-0.13,0.16-0.19,0.25c-0.26,0.39-0.38,0.84-0.36,1.28c-0.22,1.22-1.07,0.66-1.07,0.66c-0.53-0.35-1.24-0.2-1.58,0.33
			c-0.35,0.53-0.2,1.24,0.32,1.58c0.529,0.35,1.24,0.2,1.59-0.33c0.03-0.04,0.05-0.1,0.08-0.15v-0.01l0.04-0.1
			c0.109-0.26,0.45-0.89,1.17-0.58c0.13,0.15,0.27,0.28,0.439,0.4c0.2,0.13,0.41,0.22,0.62,0.28c-0.04,0.04-0.07,0.08-0.1,0.13
			c-0.271,0.41-0.16,0.96,0.25,1.23s0.96,0.16,1.229-0.25c0.24-0.36,0.181-0.84-0.12-1.13c0.47-0.14,0.9-0.45,1.19-0.9
			c0.11-0.16,0.19-0.33,0.25-0.51c0.18,0.41,0.47,0.77,0.87,1.03c1.11,0.74,2.61,0.43,3.34-0.69c0.1-0.15,0.17-0.3,0.23-0.46
			c0.07-0.16,0.11-0.32,0.13-0.47c-6.8-2.35-11.69-8.84-11.69-16.46c0-9.62,7.77-17.42,17.35-17.42c4.3,0,8.23,1.57,11.26,4.18
			c0.77-0.38,1.81-1.62,1.61-1.63C64.99,37.812,64.67,37.002,63.98,36.552z"/>
	</g>
	<g>
		<path fill-rule="evenodd" clip-rule="evenodd" fill="#3C7368" d="M153.15,56.602c-0.87,0.9-1.97,1.35-3.18,1.35h-0.34v-9.19
			c0.09-0.03,0.23-0.03,0.34-0.03c1.21,0,2.31,0.46,3.18,1.36c0.9,0.91,1.36,1.98,1.36,3.25
			C154.51,54.622,154.05,55.722,153.15,56.602z M100.2,56.752c-0.91,0.95-1.97,1.4-3.3,1.4c-1.27,0-2.4-0.45-3.27-1.4
			c-0.94-0.88-1.4-2-1.4-3.28c0-1.31,0.46-2.4,1.4-3.35c0.87-0.91,2-1.37,3.27-1.37c1.33,0,2.39,0.46,3.3,1.37
			c0.91,0.95,1.4,2.04,1.4,3.35C101.6,54.752,101.11,55.872,100.2,56.752z M77.49,50.322v0.06v0.11v0.11
			c-0.061,0.46-0.26,0.82-0.62,1.19c-0.34,0.34-0.76,0.57-1.27,0.57h-2.77h-0.02v-4.1h2.79c0.51,0.02,0.93,0.22,1.27,0.59
			c0.42,0.4,0.59,0.82,0.62,1.39V50.322z M158.45,44.802c-2.25-2.29-4.99-3.45-8.17-3.56h-14.84l-3,9.82l-2.98-9.76l0.02-0.06h-0.04
			h-8.76h-0.04l0.02,0.06l-2.98,9.76l-3-9.82h-8.8l1.33,4.35c-0.35-0.45-0.73-0.89-1.16-1.31c-2.479-2.55-5.54-3.83-9.14-3.83H96.9
			c-3.58,0-6.64,1.28-9.15,3.83c-1.09,1.08-1.93,2.26-2.55,3.54c-0.29-1.59-1.04-2.98-2.25-4.17c-1.43-1.47-3.15-2.26-5.15-2.41
			H64.28c3.1,3.15,5.01,7.47,5.01,12.25c0,4.62-1.79,8.82-4.72,11.93h8.24v-6.53l3.72,6.53h8.87l-4.34-7.72
			c0.31-0.22,0.91-0.68,1.72-1.38c0.479-0.41,0.88-0.89,1.22-1.44c0.3,2.99,1.54,5.59,3.75,7.78c2.51,2.55,5.57,3.8,9.15,3.8
			c3.61,0,6.66-1.25,9.15-3.8c2.38-2.34,3.63-5.15,3.811-8.4l3.41,11.16h0.02h8.78h0.01l2.98-9.74l2.98,9.74h0.01h8.78h0.01
			l5.07-16.58v16.58h8.37h0.07h0.01c3.12-0.1,5.86-1.26,8.09-3.53c2.39-2.35,3.55-5.21,3.55-8.55
			C162,50.002,160.84,47.182,158.45,44.802z"/>
	</g>
</g>
<path fill-rule="evenodd" clip-rule="evenodd" fill="#DEDEDD" d="M137.475,110c-4.729,0-8.562,3.833-8.562,8.562
	c0,1.702,0.502,3.283,1.358,4.616l-1.11,1.11c-0.706-0.056-1.417,0.167-1.94,0.691l-6.511,6.51c-0.979,0.98-0.94,2.62,0.101,3.65
	c1.029,1.04,2.67,1.08,3.649,0.1l6.511-6.51c0.523-0.523,0.746-1.235,0.69-1.941l1.089-1.089c1.354,0.898,2.978,1.425,4.726,1.425
	c4.729,0,8.562-3.833,8.562-8.562S142.204,110,137.475,110z M137.475,124.562c-3.314,0-6-2.686-6-6s2.686-6,6-6s6,2.686,6,6
	S140.789,124.562,137.475,124.562z"/>
<path fill-rule="evenodd" clip-rule="evenodd" fill="#D1D2D3" d="M42.379,282.36l0.011,0.45c0,4.5-3.421,9.69-9.66,9.69
	c-1.92,0-3.7-0.56-5.21-1.53c0.27,0.03,0.54,0.05,0.811,0.05c1.59,0,3.06-0.54,4.219-1.46c-1.489-0.03-2.739-1.01-3.17-2.37
	c0.201,0.04,0.41,0.06,0.641,0.06c0.311,0,0.609-0.03,0.891-0.12c-1.561-0.3-2.73-1.68-2.73-3.33v-0.05
	c0.46,0.26,0.99,0.41,1.55,0.43c-0.92-0.62-1.521-1.66-1.521-2.84c0-0.63,0.17-1.21,0.461-1.71c1.68,2.06,4.18,3.42,7,3.56
	c-0.051-0.25-0.08-0.51-0.08-0.78c0-1.89,1.52-3.41,3.39-3.41c0.979,0,1.86,0.42,2.479,1.08c0.771-0.15,1.5-0.44,2.15-0.83
	c-0.25,0.8-0.79,1.46-1.49,1.89c0.69-0.08,1.34-0.27,1.95-0.54C43.609,281.28,43.039,281.88,42.379,282.36z M35.039,270
	C26.729,270,20,276.72,20,285c0,8.29,6.729,15,15.039,15c8.32,0,15.051-6.71,15.051-15C50.09,276.72,43.359,270,35.039,270z"/>
<path fill-rule="evenodd" clip-rule="evenodd" fill="#D1D2D3" d="M39.62,325.2H36.85v9.62h-4.14v-9.62h-2.08v-3.32h2.08v-1.98
	c0-2.72,1.17-4.32,4.49-4.32h2.771v3.31h-1.73c-1.301,0-1.381,0.47-1.381,1.34l-0.01,1.65h3.141L39.62,325.2z M35.04,310
	C26.73,310,20,316.72,20,325c0,8.29,6.73,15,15.04,15s15.04-6.71,15.04-15C50.08,316.72,43.35,310,35.04,310z"/>
<path fill-rule="evenodd" clip-rule="evenodd" fill="#D1D2D3" d="M35.039,230C26.729,230,20,236.72,20,245
	c0,8.29,6.729,15,15.039,15c8.32,0,15.051-6.71,15.051-15C50.09,236.72,43.359,230,35.039,230z M38.939,238.38l4.33-2
	c0.25-0.11,0.55,0,0.67,0.25c0.109,0.25,0,0.55-0.25,0.66l-4.33,2c-0.07,0.03-0.141,0.05-0.21,0.05c-0.19,0-0.37-0.11-0.46-0.29
	C38.58,238.8,38.689,238.5,38.939,238.38z M37.069,246.21v3.89c0,0.28-0.3,0.47-0.55,0.33l-5.93-3.3l-1.23,4.3
	c-0.13,0.44-0.529,0.75-0.98,0.75H27.5c-0.681,0-1.17-0.65-0.99-1.31l1.07-3.74c0,0-2.041-0.604-2.041-2.52
	c0-1.39,1.131-2.52,2.53-2.52h2.521l5.93-3.29c0.25-0.14,0.55,0.04,0.55,0.32v3.89c0.44,0.4,0.72,0.96,0.72,1.6
	S37.51,245.82,37.069,246.21z M43.939,252.39c-0.09,0.18-0.27,0.29-0.46,0.29c-0.069,0-0.14-0.02-0.21-0.05l-4.33-2
	c-0.25-0.11-0.359-0.41-0.25-0.66c0.12-0.25,0.42-0.36,0.67-0.25l4.33,2C43.939,251.84,44.049,252.14,43.939,252.39z M44.479,245.11
	h-5.33c-0.28,0-0.5-0.22-0.5-0.5s0.22-0.5,0.5-0.5h5.33c0.28,0,0.5,0.22,0.5,0.5S44.76,245.11,44.479,245.11z"/>
<path fill-rule="evenodd" clip-rule="evenodd" fill="#D1D2D3" d="M35.04,350C26.729,350,20,356.71,20,365s6.729,15,15.04,15
	c8.32,0,15.051-6.71,15.051-15S43.36,350,35.04,350z M32.79,371.87c0.301,0.46,0.16,1.08-0.3,1.38c-0.17,0.11-0.351,0.16-0.54,0.16
	c-0.33,0-0.65-0.16-0.84-0.46l-4.78-7.41c-0.21-0.33-0.21-0.75,0-1.08l4.78-7.41c0.3-0.47,0.92-0.6,1.38-0.3s0.601,0.92,0.3,1.38
	L28.36,365L32.79,371.87z M43.761,365.54l-4.781,7.41c-0.189,0.3-0.51,0.46-0.84,0.46c-0.18,0-0.369-0.05-0.539-0.16
	c-0.461-0.3-0.601-0.92-0.301-1.38l4.43-6.87l-4.43-6.87c-0.3-0.46-0.16-1.08,0.301-1.38c0.47-0.3,1.08-0.17,1.379,0.3l4.781,7.41
	C43.97,364.79,43.97,365.21,43.761,365.54z"/>
<g>
	<path fill="#ABABAB" d="M239,200c-0.162,0-0.325-0.04-0.473-0.119C238.203,199.707,238,199.369,238,199v-6h-7c-0.552,0-1-0.448-1-1
		v-21c0-0.552,0.448-1,1-1h26c0.552,0,1,0.448,1,1v21c0,0.552-0.448,1-1,1h-7.149l-10.298,6.833
		C239.386,199.944,239.193,200,239,200z M232,191h7c0.552,0,1,0.448,1,1v5.136l8.996-5.969c0.164-0.109,0.356-0.167,0.553-0.167H256
		v-19h-24V191z"/>
</g>
<path fill="#ABABAB" d="M144.26,182c0.14,0,0.28-0.04,0.399-0.11c0.34-0.22,0.44-0.66,0.22-0.99l-3.27-4.9l3.27-4.9
	c0.22-0.33,0.12-0.77-0.22-0.99c-0.34-0.21-0.8-0.11-1.02,0.22l-3.52,5.28c-0.16,0.24-0.16,0.54,0,0.78l3.52,5.28
	C143.78,181.89,144.02,182,144.26,182z"/>
<g>
	<path fill="#ABABAB" d="M174.75,175.5c-0.191,0-0.384-0.073-0.53-0.22l-4-4c-0.293-0.293-0.293-0.768,0-1.061s0.768-0.293,1.061,0
		l3.47,3.47l3.47-3.47c0.293-0.293,0.768-0.293,1.061,0s0.293,0.768,0,1.061l-4,4C175.134,175.427,174.942,175.5,174.75,175.5z"/>
</g>
<g>
	<path fill="#ABABAB" d="M204.75,170c0.192,0,0.384,0.073,0.53,0.22l4,4c0.293,0.293,0.293,0.768,0,1.061s-0.768,0.293-1.061,0
		l-3.47-3.47l-3.47,3.47c-0.293,0.293-0.768,0.293-1.061,0s-0.293-0.768,0-1.061l4-4C204.366,170.073,204.558,170,204.75,170z"/>
</g>
</svg>
